<svg width="100" height="100" viewBox="0 0 100 100" fill="none" xmlns="http://www.w3.org/2000/svg">
<path d="M8.43078 74L50 2L91.5692 74H8.43078Z" stroke="#EEEBDD" stroke-width="2"/>
<path d="M52.1328 56.3672H48.2188L47.9141 31.875H52.4609L52.1328 56.3672ZM47.75 63.8203C47.75 63.1172 47.9609 62.5312 48.3828 62.0625C48.8203 61.5781 49.4609 61.3359 50.3047 61.3359C51.1484 61.3359 51.7891 61.5781 52.2266 62.0625C52.6641 62.5312 52.8828 63.1172 52.8828 63.8203C52.8828 64.5234 52.6641 65.1094 52.2266 65.5781C51.7891 66.0312 51.1484 66.2578 50.3047 66.2578C49.4609 66.2578 48.8203 66.0312 48.3828 65.5781C47.9609 65.1094 47.75 64.5234 47.75 63.8203Z" fill="white"/>
</svg>
