<svg width="20" height="20" viewBox="0 0 20 20" fill="none" xmlns="http://www.w3.org/2000/svg">
<g clip-path="url(#clip0)">
<path d="M18.8616 3.28133C18.5792 2.99859 18.2441 2.8572 17.8572 2.8572H16.4288V1.78573C16.4288 1.29475 16.2538 0.874336 15.9041 0.524633C15.5543 0.17493 15.1341 0 14.6429 0H13.9288C13.4376 0 13.0173 0.17493 12.6675 0.524672C12.3177 0.874336 12.1429 1.29479 12.1429 1.78577V2.85724H7.85739V1.78577C7.85739 1.29479 7.68246 0.874375 7.33272 0.524672C6.98306 0.17493 6.56268 0 6.07151 0H5.35728C4.86623 0 4.44581 0.17493 4.09607 0.524672C3.74641 0.874336 3.57144 1.29479 3.57144 1.78577V2.85724H2.14299C1.756 2.85724 1.42123 2.99863 1.13849 3.28137C0.855746 3.56407 0.714355 3.899 0.714355 4.28588V18.5716C0.714355 18.9582 0.855746 19.293 1.13849 19.5759C1.42119 19.8586 1.75596 20 2.14299 20H17.8569C18.2438 20 18.5789 19.8586 18.8613 19.5759C19.1441 19.2932 19.2855 18.9582 19.2855 18.5716V4.28584C19.2855 3.89884 19.1442 3.56407 18.8616 3.28133ZM13.5716 1.78589C13.5716 1.68163 13.6048 1.59598 13.6717 1.52918C13.7386 1.4623 13.8242 1.42879 13.9285 1.42879H14.6426C14.747 1.42879 14.8323 1.46218 14.8995 1.52918C14.9664 1.5961 14.9998 1.68175 14.9998 1.78589V5.00006C14.9998 5.10427 14.9664 5.18976 14.8995 5.25677C14.8323 5.32357 14.747 5.35715 14.6426 5.35715H13.9285C13.8242 5.35715 13.7386 5.32373 13.6717 5.25677C13.6048 5.18972 13.5716 5.10427 13.5716 5.00006V1.78589ZM5.00019 1.78589C5.00019 1.68163 5.03362 1.59598 5.10058 1.52918C5.16758 1.4623 5.25307 1.42879 5.35728 1.42879H6.07151C6.17576 1.42879 6.26141 1.46218 6.32821 1.52918C6.3951 1.5961 6.42867 1.68175 6.42867 1.78589V5.00006C6.42867 5.10427 6.39525 5.18988 6.32821 5.25677C6.26125 5.32357 6.17576 5.35715 6.07151 5.35715H5.35728C5.25307 5.35715 5.16746 5.32373 5.10058 5.25677C5.03377 5.18972 5.00019 5.10427 5.00019 5.00006V1.78589ZM17.8569 18.5714H2.14299V7.14292H17.8569V18.5714Z" fill="#EEEBDD"/>
</g>
<defs>
<clipPath id="clip0">
<rect width="20" height="20" fill="white"/>
</clipPath>
</defs>
</svg>
