<svg width="466" height="92" viewBox="0 0 466 92" fill="none" xmlns="http://www.w3.org/2000/svg">
<path d="M64.35 44.3875L39.0187 27.0625C38.2312 26.4813 36.1312 26.4813 35.9625 28.675V63.325C36.15 65.5187 38.2875 65.5563 39.0187 64.9375L64.35 47.6125C65.0062 47.2188 65.9062 45.6062 64.35 44.3875ZM39.8812 59.6313V32.3688L59.775 46L39.8812 59.6313Z" fill="#EEEBDD"/>
<path d="M45.9375 0.0625C20.6062 0.0625 0 20.6687 0 46C0 71.3313 20.6062 91.9375 45.9375 91.9375C71.2688 91.9375 91.875 71.3313 91.875 46C91.875 20.6687 71.2688 0.0625 45.9375 0.0625ZM45.9375 88.0188C22.7625 88.0188 3.91875 69.175 3.91875 46C3.91875 22.825 22.7625 3.98125 45.9375 3.98125C69.1125 3.98125 87.9563 22.825 87.9563 46C87.9563 69.175 69.1125 88.0188 45.9375 88.0188Z" fill="#EEEBDD"/>
<path d="M100.018 28.76H113.058V33.4C116.684 29.7733 120.391 27.96 124.177 27.96C126.951 27.96 129.057 28.9733 130.497 31C131.991 32.9733 132.738 35.56 132.738 38.76V75H119.778V40.6C119.778 39.4267 119.564 38.5733 119.138 38.04C118.764 37.4533 118.098 37.16 117.138 37.16C116.071 37.16 114.711 37.72 113.058 38.84V75H100.018V28.76Z" fill="#EEEBDD"/>
<path d="M141.124 10.2H154.084V75H141.124V10.2Z" fill="#EEEBDD"/>
<path d="M162.518 11.88H175.637V20.92H162.518V11.88ZM162.598 28.76H175.637V75H162.598V28.76Z" fill="#EEEBDD"/>
<path d="M183.689 28.76H196.729V33.4C200.356 29.7733 204.063 27.96 207.849 27.96C210.623 27.96 212.729 28.9733 214.169 31C215.663 32.9733 216.409 35.56 216.409 38.76V75H203.449V40.6C203.449 39.4267 203.236 38.5733 202.809 38.04C202.436 37.4533 201.769 37.16 200.809 37.16C199.743 37.16 198.383 37.72 196.729 38.84V75H183.689V28.76Z" fill="#EEEBDD"/>
<path d="M239.356 75.8C234.29 75.8 230.343 74.4667 227.516 71.8C224.69 69.08 223.276 65.2667 223.276 60.36V43.4C223.276 38.4933 224.69 34.7067 227.516 32.04C230.343 29.32 234.29 27.96 239.356 27.96C244.476 27.96 248.316 29.2667 250.876 31.88C253.436 34.4933 254.716 38.3333 254.716 43.4V52.68H236.156V61.56C236.156 64.8667 237.223 66.52 239.356 66.52C241.596 66.52 242.716 65.0267 242.716 62.04V57.16H254.716V61.64C254.716 66.28 253.356 69.8 250.636 72.2C247.97 74.6 244.21 75.8 239.356 75.8ZM242.716 46.6V41.96C242.716 40.2533 242.396 39.0533 241.756 38.36C241.17 37.6133 240.343 37.24 239.276 37.24C238.263 37.24 237.49 37.64 236.956 38.44C236.423 39.24 236.156 40.6533 236.156 42.68V46.6H242.716Z" fill="#EEEBDD"/>
<path d="M262.534 10.2H290.534V19.88H276.854V36.2H288.774V46.2H276.854V75H262.534V10.2Z" fill="#EEEBDD"/>
<path d="M296.502 11.88H309.622V20.92H296.502V11.88ZM296.582 28.76H309.622V75H296.582V28.76Z" fill="#EEEBDD"/>
<path d="M318.234 10.2H331.194V75H318.234V10.2Z" fill="#EEEBDD"/>
<path d="M339.627 28.76H352.427V32.44C355.52 29.4 359.174 27.88 363.387 27.88C365.254 27.88 366.854 28.36 368.187 29.32C369.574 30.2267 370.614 31.5867 371.307 33.4C374.56 29.72 378.48 27.88 383.067 27.88C385.787 27.88 387.947 28.8933 389.547 30.92C391.2 32.8933 392.027 35.6133 392.027 39.08V75H379.227V40.44C379.227 39.16 378.987 38.2533 378.507 37.72C378.08 37.1333 377.414 36.84 376.507 36.84C375.92 36.84 375.227 37 374.427 37.32C373.627 37.5867 372.88 37.9867 372.187 38.52V75H359.547V40.44C359.547 38.04 358.614 36.84 356.747 36.84C355.52 36.84 354.08 37.4 352.427 38.52V75H339.627V28.76Z" fill="#EEEBDD"/>
<path d="M414.981 75.8C409.915 75.8 405.968 74.4667 403.141 71.8C400.315 69.08 398.901 65.2667 398.901 60.36V43.4C398.901 38.4933 400.315 34.7067 403.141 32.04C405.968 29.32 409.915 27.96 414.981 27.96C420.101 27.96 423.941 29.2667 426.501 31.88C429.061 34.4933 430.341 38.3333 430.341 43.4V52.68H411.781V61.56C411.781 64.8667 412.848 66.52 414.981 66.52C417.221 66.52 418.341 65.0267 418.341 62.04V57.16H430.341V61.64C430.341 66.28 428.981 69.8 426.261 72.2C423.595 74.6 419.835 75.8 414.981 75.8ZM418.341 46.6V41.96C418.341 40.2533 418.021 39.0533 417.381 38.36C416.795 37.6133 415.968 37.24 414.901 37.24C413.888 37.24 413.115 37.64 412.581 38.44C412.048 39.24 411.781 40.6533 411.781 42.68V46.6H418.341Z" fill="#EEEBDD"/>
<path d="M451.679 75.8C447.573 75.8 444.159 74.8933 441.439 73.08C438.773 71.2133 436.613 68.2533 434.959 64.2L443.839 60.28C444.693 62.4133 445.679 64.0667 446.799 65.24C447.973 66.4133 449.253 67 450.639 67C452.666 67 453.679 66.2 453.679 64.6C453.679 63.4267 453.279 62.3867 452.479 61.48C451.679 60.52 449.946 58.9467 447.279 56.76L443.919 53.96C441.146 51.6133 439.119 49.48 437.839 47.56C436.613 45.64 435.999 43.3467 435.999 40.68C435.999 38.2267 436.639 36.04 437.919 34.12C439.253 32.2 441.013 30.7067 443.199 29.64C445.386 28.52 447.733 27.96 450.239 27.96C454.026 27.96 457.173 29 459.679 31.08C462.239 33.1067 464.053 36.04 465.119 39.88L456.719 43.72C456.186 42.0133 455.359 40.4933 454.239 39.16C453.119 37.7733 451.893 37.08 450.559 37.08C449.706 37.08 449.013 37.32 448.479 37.8C447.999 38.28 447.759 38.92 447.759 39.72C447.759 40.68 448.266 41.72 449.279 42.84C450.346 43.96 451.999 45.4267 454.239 47.24L457.519 50.12C460.186 52.36 462.239 54.4667 463.679 56.44C465.119 58.36 465.839 60.6267 465.839 63.24C465.839 65.8533 465.173 68.12 463.839 70.04C462.559 71.9067 460.826 73.3467 458.639 74.36C456.506 75.32 454.186 75.8 451.679 75.8Z" fill="#EEEBDD"/>
</svg>
