<svg width="128" height="73" viewBox="0 0 128 73" fill="none" xmlns="http://www.w3.org/2000/svg">
<path d="M50.5012 35.2738L31.2389 22.0996C30.6401 21.6576 29.0432 21.6576 28.9149 23.3258V49.6742C29.0574 51.3424 30.6828 51.3709 31.2389 50.9004L50.5012 37.7262C51.0002 37.4268 51.6846 36.2006 50.5012 35.2738V35.2738ZM31.8947 46.8654V26.1346L47.0223 36.5L31.8947 46.8654V46.8654Z" fill="#0F4C75"/>
<path d="M36.5 1.56836C17.2377 1.56836 1.56836 17.2377 1.56836 36.5C1.56836 55.7623 17.2377 71.4316 36.5 71.4316C55.7623 71.4316 71.4316 55.7623 71.4316 36.5C71.4316 17.2377 55.7623 1.56836 36.5 1.56836ZM36.5 68.4518C18.8773 68.4518 4.54824 54.1227 4.54824 36.5C4.54824 18.8773 18.8773 4.54824 36.5 4.54824C54.1227 4.54824 68.4518 18.8773 68.4518 36.5C68.4518 54.1227 54.1227 68.4518 36.5 68.4518Z" fill="#0F4C75"/>
<path d="M78.6 14.4H99.6V21.66H89.34V33.9H98.28V41.4H89.34V63H78.6V14.4ZM104.616 14.4H125.616V21.66H115.356V33.9H124.296V41.4H115.356V63H104.616V14.4Z" fill="#EEEBDD"/>
</svg>
