<svg width="20" height="20" viewBox="0 0 20 20" fill="none" xmlns="http://www.w3.org/2000/svg">
<g clip-path="url(#clip0)">
<path d="M19.8242 0.175394C19.7032 0.0544229 19.5369 -0.00951232 19.3654 0.000114054L11.9923 0.409636C11.8444 0.417899 11.7049 0.48023 11.6002 0.584916L0.176711 12.0086C-0.0582527 12.2437 -0.0582527 12.6245 0.176711 12.8595L7.14019 19.823C7.25771 19.9404 7.41165 19.9992 7.56568 19.9992C7.71962 19.9992 7.87364 19.9404 7.99116 19.823L19.4148 8.39945C19.5195 8.29468 19.5818 8.15518 19.5901 8.00734L19.9996 0.634252C20.009 0.463303 19.9453 0.296446 19.8242 0.175394ZM18.4013 7.71108L7.5656 18.5467L1.45301 12.4341L12.2886 1.59841L18.7608 1.23895L18.4013 7.71108Z" fill="#EEEBDD"/>
<path d="M12.7779 7.22258C13.1582 7.60282 13.6639 7.81227 14.2018 7.81227C14.7396 7.81227 15.2453 7.6029 15.6257 7.2225C16.4107 6.43739 16.4107 5.15989 15.6257 4.3747C15.2454 3.99437 14.7396 3.78492 14.2018 3.78492C13.6638 3.78492 13.1581 3.99429 12.7778 4.37478C11.9927 5.15989 11.9927 6.43739 12.7779 7.22258ZM13.6287 5.22567C13.7817 5.07261 13.9852 4.9883 14.2018 4.9883C14.4182 4.9883 14.6217 5.07261 14.7748 5.22559C15.0907 5.54157 15.0907 6.05578 14.7749 6.37169C14.6218 6.52475 14.4183 6.60898 14.2018 6.60898C13.9853 6.60898 13.7817 6.52475 13.6287 6.37177C13.3128 6.0557 13.3128 5.54157 13.6287 5.22567Z" fill="#EEEBDD"/>
</g>
<defs>
<clipPath id="clip0">
<rect width="20" height="20" fill="white"/>
</clipPath>
</defs>
</svg>
